<svg xmlns="http://www.w3.org/2000/svg" viewBox="0 0 128 128" role="img" aria-label="Radar Care logo">
  <defs>
    <linearGradient id="shield" x1="24" y1="15" x2="104" y2="116" gradientUnits="userSpaceOnUse">
      <stop offset="0" stop-color="#2dd4bf"/>
      <stop offset=".52" stop-color="#38bdf8"/>
      <stop offset="1" stop-color="#2563eb"/>
    </linearGradient>
    <linearGradient id="pulse" x1="32" y1="66" x2="99" y2="66" gradientUnits="userSpaceOnUse">
      <stop offset="0" stop-color="#f8fafc"/>
      <stop offset=".45" stop-color="#ccfbf1"/>
      <stop offset="1" stop-color="#fef3c7"/>
    </linearGradient>
    <filter id="softShadow" x="-30%" y="-20%" width="160%" height="160%">
      <feDropShadow dx="0" dy="9" stdDeviation="8" flood-color="#0f172a" flood-opacity=".18"/>
    </filter>
  </defs>
  <path
    fill="url(#shield)"
    filter="url(#softShadow)"
    d="M64 8 108 23v34.3c0 27.7-17.4 52.4-44 62.7-26.6-10.3-44-35-44-62.7V23L64 8Z"
  />
  <path
    fill="none"
    stroke="#e0f2fe"
    stroke-linecap="round"
    stroke-width="5"
    d="M39.8 53.5a34 34 0 0 1 48.4 0M49.3 63a20.6 20.6 0 0 1 29.4 0"
    opacity=".82"
  />
  <circle cx="64" cy="76" r="9" fill="#ecfeff"/>
  <circle cx="64" cy="76" r="4.5" fill="#0284c7"/>
  <path
    fill="none"
    stroke="url(#pulse)"
    stroke-linecap="round"
    stroke-linejoin="round"
    stroke-width="6"
    d="M31.5 84h15.2l7.8-15.6 8.7 27.2 9.4-18.4 7 6.8h16.9"
  />
  <path
    fill="none"
    stroke="#ffffff"
    stroke-linecap="round"
    stroke-width="3"
    d="M64 20.5 94.5 31v25.5"
    opacity=".35"
  />
</svg>
